<?xml version="1.0" encoding="utf-8"?>
<!-- Generator: Adobe Illustrator 18.0.0, SVG Export Plug-In . SVG Version: 6.00 Build 0)  -->
<!DOCTYPE svg PUBLIC "-//W3C//DTD SVG 1.1//EN" "http://www.w3.org/Graphics/SVG/1.1/DTD/svg11.dtd">
<svg version="1.1" id="圖層_1" xmlns="http://www.w3.org/2000/svg" xmlns:xlink="http://www.w3.org/1999/xlink" x="0px" y="0px"
	 viewBox="0 0 305.9 202" enable-background="new 0 0 305.9 202" xml:space="preserve">
<g>
	<path d="M143.3,55.8l25.8,7.6c0.3,0.1,0.7,0.1,1,0.1c1.1-0.1,2.3-0.3,2.8-1.8c0.7-1.9,0-3.6-1.8-4.2l-25.8-7.6
		c-1.9-0.5-3.6,0-4.2,1.9C140.6,53.7,141.5,55.2,143.3,55.8z"/>
	<path d="M171.1,87.5h-18.7c-1.8,0-3.2,1.3-3.5,3.1l-0.1,0v0.9h0.1c0.2,1.3,1.1,2.4,2.3,2.8v4.2c-0.8,0.6-1.5,1.1-2.3,1.4
		c-0.8,0.3-1.4,0.5-2.1,0.5c-0.5,0-0.9-0.1-1.3-0.3c-0.4-0.2-0.6-0.5-0.8-0.9c-0.2-0.4-0.3-0.9-0.3-1.5v-7.3l-4.3,0.2v0.9h1
		c0.3,0,0.6,0.1,0.8,0.2c0.2,0.1,0.3,0.3,0.4,0.4c0.1,0.2,0.1,0.5,0.1,1v5.1c0,0.5,0.1,1,0.3,1.4c0.2,0.4,0.4,0.8,0.8,1.1
		c0.3,0.3,0.7,0.6,1.1,0.7s0.9,0.2,1.5,0.2c0.8,0,1.6-0.2,2.3-0.5c0.8-0.3,1.7-0.9,2.7-1.7v2.1l3.8-0.2v-1h-0.4
		c-0.5,0-0.9,0-1.1-0.1c-0.2-0.1-0.3-0.2-0.4-0.4s-0.1-0.6-0.1-1.1v-4.3h17.9c1.9,0,3.5-1.6,3.5-3.5S173,87.5,171.1,87.5z"/>
	<path d="M164.6,128.7l-45.3,30.9c-1.6,1.1-2,3.3-0.9,4.9c0.7,1,1.8,1.5,2.9,1.5c0.7,0,1.4-0.2,2-0.6l45.3-30.9
		c1.6-1.1,2-3.3,0.9-4.9C168.3,128.1,166.2,127.6,164.6,128.7z"/>
	<path d="M243.2,57.6h-39.9c-1.9,0-3.5,1.6-3.5,3.5V89c0,1.9,1.6,3.5,3.5,3.5h46.5c1.9,0,3.5-1.6,3.5-3.5V67.8
		C253.3,62.2,248.8,57.6,243.2,57.6z M215.3,85.5h-9c-0.5,0-0.9-0.4-0.9-0.9V65.3c0-0.4,0.3-0.7,0.7-0.7h19.5l-10.2,20.7
		C215.3,85.4,215.3,85.5,215.3,85.5z M221.8,85.5l3.2-7.5l5.1,7.5H221.8z M247.1,85.5h-9.6l-10.4-12.5l3.6-8.5c0,0,0,0,0,0H244
		c1.7,0,3.1,1.4,3.1,3.1V85.5z"/>
	<path d="M243,106.3h-39.7c-1.9,0-3.5,1.6-3.5,3.5v27.9c0,1.9,1.6,3.5,3.5,3.5h46.5c1.9,0,3.5-1.6,3.5-3.5v-21.1
		C253.3,110.9,248.7,106.3,243,106.3z M216.4,134.2h-10.7v-20.9h10.7V134.2z M231.1,134.2h-8.1v-20.9h8.1V134.2z M247.4,134.2h-9.8
		v-20.9h6.5c1.8,0,3.3,1.5,3.3,3.3V134.2z"/>
	<path d="M61.6,62c-0.8,1-1.2,2.2-1.2,3.6c0,2,0.6,3.6,1.9,4.8c1.2,1.4,3.1,2.1,5.9,2.1c2.7,0,4.7-0.7,6-2.1
		c1.2-1.2,1.9-2.9,1.9-4.8c0-1.2-0.4-2.5-1.1-3.6s-1.8-2.1-3.4-2.7c2.3-1.2,3.5-2.9,3.5-5c0-1.6-0.6-3-1.9-4.2c-1.3-1.1-3-1.6-5-1.6
		c-1.3,0-2.4,0.2-3.5,0.7c-0.9,0.5-1.8,1.3-2.5,2.2c-0.5,0.8-0.8,1.8-0.8,2.9c0,2.2,1.1,3.9,3.4,5C63.3,59.9,62.3,60.8,61.6,62z
		 M64.2,54.4c0-1,0.4-1.9,1.2-2.6c0.9-0.7,1.8-1.1,2.8-1.1c1.2,0,2.1,0.4,2.9,1.1c0.8,0.7,1.2,1.6,1.2,2.6c0,1.1-0.4,2-1.2,2.7
		c-0.8,0.8-1.8,1.2-2.9,1.2s-2.1-0.4-2.8-1.2C64.6,56.3,64.2,55.4,64.2,54.4z M64.8,61.9c0.9-0.9,2.1-1.4,3.4-1.4
		c1.4,0,2.6,0.5,3.5,1.4c0.9,1,1.4,2.2,1.4,3.6c0,1.3-0.4,2.4-1.3,3.3c-0.9,0.9-2.1,1.4-3.6,1.4c-1.4,0-2.6-0.5-3.5-1.4
		c-0.9-0.9-1.4-2-1.4-3.3C63.3,64.1,63.8,62.9,64.8,61.9z"/>
	<path d="M85.3,62.9c2.3,0,4.4-1.1,6.1-3.2v0.8c0,1.5-0.2,3-0.7,4.7c-0.6,1.7-1.3,3-2.1,3.8c-1.1,0.9-2.2,1.3-3.3,1.3
		c-0.9,0-1.7-0.2-2.3-0.7c-0.5-0.3-0.8-0.8-0.8-1.4h-2.7c0,1.3,0.5,2.3,1.5,3c1.1,0.9,2.5,1.3,4.3,1.3c2.6,0,4.7-1,6.3-3
		c1.6-2,2.5-5.1,2.5-9.1c0-4.6-1-7.9-2.9-9.8c-1.5-1.4-3.2-2.1-5.3-2.1c-2,0-3.6,0.7-4.9,2.1c-1.4,1.4-2.1,3.2-2.1,5.3
		c0,2.2,0.6,3.9,1.9,5.2C82.1,62.3,83.6,62.9,85.3,62.9z M83.1,52.2c0.9-0.9,1.8-1.4,2.8-1.4c1.5,0,2.6,0.5,3.4,1.4
		c0.9,1.1,1.3,2.3,1.3,3.5c0,1.3-0.4,2.5-1.3,3.6c-0.8,0.9-1.8,1.4-3.2,1.4c-1.2,0-2.2-0.4-3-1.3c-0.9-0.9-1.3-2-1.3-3.5
		C81.8,54.5,82.2,53.3,83.1,52.2z"/>
	<path d="M78.8,87.1c0.1-0.2,0.3-0.3,0.5-0.4c0.2-0.1,0.5-0.1,0.9-0.1v-1h-4.8v1h0.6c0.4,0,0.7,0.1,0.9,0.2c0.2,0.1,0.2,0.3,0.2,0.5
		c0,0.2-0.1,0.5-0.2,0.8l-3.3,10.6l-3.2-10.6c-0.1-0.4-0.2-0.7-0.2-0.9c0-0.2,0.1-0.4,0.2-0.5c0.2-0.1,0.5-0.2,0.9-0.2h0.5v-1h-5.6
		v1c0.5,0,0.8,0.1,1,0.2c0.3,0.2,0.6,0.6,0.7,1.1l0.7,2.1l-2.8,8.7l-3.2-10.5c-0.1-0.4-0.2-0.7-0.2-0.8c0-0.2,0.1-0.4,0.3-0.5
		c0.1-0.1,0.4-0.1,0.8-0.1h0.6v-1h-5.7v1c0.5,0,0.8,0.1,1.1,0.2c0.3,0.2,0.6,0.6,0.8,1.3l4.3,13.3h1.6l3.1-9.5l3,9.5H74l4.4-13.3
		C78.5,87.6,78.6,87.3,78.8,87.1z"/>
	<path d="M85.6,100.2c-0.6,0.3-1.1,0.4-1.7,0.4c-0.7,0-1.3-0.2-1.9-0.5c-0.5-0.4-1-0.9-1.3-1.6c-0.3-0.7-0.5-1.6-0.5-2.5
		c0-0.2,0-0.5,0-0.8h8c0-0.6-0.1-1.1-0.2-1.5c-0.2-0.7-0.5-1.2-0.9-1.7c-0.4-0.5-0.9-0.9-1.5-1.1s-1.3-0.4-2.1-0.4
		c-1.1,0-2,0.2-2.9,0.7c-0.8,0.5-1.5,1.2-1.9,2s-0.7,1.9-0.7,3.1c0,1.1,0.2,2.1,0.7,3s1.2,1.5,2,2c0.8,0.5,1.7,0.7,2.8,0.7
		c0.6,0,1.2-0.1,1.6-0.2c0.5-0.2,0.9-0.4,1.5-0.8c0.5-0.4,1-0.9,1.6-1.6l-0.7-0.6C86.8,99.3,86.2,99.9,85.6,100.2z M81.2,92.5
		c0.3-0.3,0.6-0.6,1-0.8c0.4-0.2,0.9-0.3,1.3-0.3s0.9,0.1,1.3,0.3c0.4,0.2,0.7,0.5,0.9,0.8s0.4,0.8,0.5,1.5h-5.7
		C80.6,93.3,80.9,92.8,81.2,92.5z"/>
	<path d="M101.4,100c-0.1-0.2-0.1-0.6-0.1-1.1v-5c0-0.6,0-1-0.1-1.3c-0.1-0.5-0.3-0.9-0.6-1.2c-0.3-0.4-0.7-0.6-1.2-0.8
		c-0.5-0.2-1-0.3-1.6-0.3c-0.7,0-1.4,0.1-2.1,0.4c-0.7,0.3-1.6,0.9-2.5,1.7v-2.1h-0.8c-0.6,0.3-1.1,0.6-1.4,0.7
		c-0.3,0.1-0.8,0.2-1.5,0.3v0.9h1.9v6.5c0,0.7,0,1.1-0.1,1.2c-0.1,0.2-0.2,0.4-0.4,0.5c-0.2,0.1-0.6,0.1-1.1,0.1h-0.3v1h5.8v-1h-0.3
		c-0.6,0-0.9,0-1.1-0.1c-0.2-0.1-0.3-0.2-0.4-0.4c-0.1-0.2-0.1-0.6-0.1-1.2v-5.2c0.6-0.6,1.3-1.1,2-1.4c0.7-0.3,1.3-0.5,2-0.5
		c0.5,0,0.9,0.1,1.3,0.3c0.3,0.2,0.6,0.5,0.7,0.8c0.1,0.3,0.2,0.9,0.2,1.8v4.2c0,0.6,0,1-0.1,1.2s-0.2,0.3-0.4,0.4
		c-0.2,0.1-0.6,0.1-1.1,0.1h-0.3v1h5.8v-1c-0.7,0-1.2,0-1.4-0.1S101.4,100.2,101.4,100z"/>
	<path d="M112.4,99.9c-0.6,0.4-1.7,0.5-3.2,0.5h-1.9l7.6-8.9v-0.9h-8.2l-1.5,3.3l1,0.5c0.5-1,1-1.7,1.6-2.1c0.6-0.4,1.4-0.6,2.4-0.6
		h2.2l-7.6,8.8v1h9.2l1.4-3.7l-1-0.4C114,98.5,113.3,99.4,112.4,99.9z"/>
	<path d="M121.3,100.5h-0.5c-0.5,0-0.9,0-1-0.1c-0.2-0.1-0.3-0.2-0.4-0.3c-0.1-0.1-0.1-0.4-0.1-0.8v-5.7c0.7-0.6,1.4-1.1,2.1-1.4
		c0.7-0.3,1.3-0.5,1.9-0.5c0.5,0,1,0.1,1.4,0.4s0.6,0.6,0.7,1.1c0.1,0.3,0.1,0.8,0.1,1.7v3.9c0,0.6,0,1-0.1,1.2
		c-0.1,0.2-0.2,0.3-0.4,0.4c-0.2,0.1-0.5,0.1-1.1,0.1h-0.4v1h5.8v-1c-0.7,0-1.2,0-1.4-0.1c-0.2-0.1-0.3-0.2-0.4-0.4
		c-0.1-0.2-0.1-0.5-0.1-1.1v-5.6c0-0.9-0.3-1.6-1-2.2c-0.7-0.6-1.5-0.9-2.5-0.9c-0.7,0-1.4,0.2-2.2,0.5c-0.8,0.3-1.6,0.9-2.4,1.6
		v-7.5h-0.9c-0.4,0.3-0.9,0.5-1.3,0.6s-1,0.2-1.7,0.3v1h1.9v11.5c0,0.9,0,1.4-0.1,1.6s-0.2,0.3-0.3,0.4c-0.2,0.1-0.6,0.2-1.2,0.2
		h-0.4v1h5.9V100.5z"/>
	<path d="M134.6,101.7c1.1,0,2.1-0.2,3-0.7s1.5-1.1,2-2s0.7-1.9,0.7-3s-0.2-2.1-0.7-3c-0.5-0.9-1.1-1.6-1.9-2s-1.8-0.7-2.9-0.7
		c-1.1,0-2.1,0.2-2.9,0.7s-1.5,1.2-2,2c-0.5,0.9-0.7,1.9-0.7,3c0,1.5,0.5,2.9,1.4,4C131.4,101.2,132.8,101.7,134.6,101.7z
		 M132.5,92.4c0.6-0.7,1.3-1,2.2-1c0.6,0,1.2,0.2,1.7,0.5c0.5,0.3,0.9,0.8,1.2,1.4c0.3,0.8,0.5,1.7,0.5,2.6c0,1-0.2,1.9-0.5,2.6
		c-0.3,0.7-0.7,1.3-1.2,1.6c-0.5,0.3-1.1,0.5-1.7,0.5c-1,0-1.8-0.4-2.4-1.1c-0.6-0.8-1-2-1-3.5C131.4,94.5,131.7,93.2,132.5,92.4z"
		/>
</g>
</svg>
