<?xml version="1.0" encoding="utf-8"?>
<!-- Generator: Adobe Illustrator 18.0.0, SVG Export Plug-In . SVG Version: 6.00 Build 0)  -->
<!DOCTYPE svg PUBLIC "-//W3C//DTD SVG 1.1//EN" "http://www.w3.org/Graphics/SVG/1.1/DTD/svg11.dtd">
<svg version="1.1" id="圖層_1" xmlns="http://www.w3.org/2000/svg" xmlns:xlink="http://www.w3.org/1999/xlink" x="0px" y="0px"
	 viewBox="0 0 248.1 168.8" enable-background="new 0 0 248.1 168.8" xml:space="preserve">
<path d="M183.9,21.7H43.2c-6.8,0-12.4,5.5-12.4,12.4v98.7c0,6.8,5.5,12.4,12.4,12.4h164.2c6.8,0,12.4-5.5,12.4-12.4V57.5
	C219.7,37.8,203.7,21.7,183.9,21.7z M119.9,93.8l18.1,26.5h-29.5L119.9,93.8z M50.6,117.1V48.9c0-1.4,1.1-2.5,2.5-2.5h68.8
	l-36.1,73.2c-0.1,0.2-0.2,0.5-0.3,0.7H53.8C52,120.3,50.6,118.9,50.6,117.1z M197.9,120.3h-33.8l-36.7-44l12.9-29.8c0,0,0-0.1,0-0.1
	h46.4c6.1,0,11.1,5,11.1,11.1V120.3z"/>
</svg>
