<?xml version="1.0" encoding="utf-8"?>
<!-- Generator: Adobe Illustrator 18.0.0, SVG Export Plug-In . SVG Version: 6.00 Build 0)  -->
<!DOCTYPE svg PUBLIC "-//W3C//DTD SVG 1.1//EN" "http://www.w3.org/Graphics/SVG/1.1/DTD/svg11.dtd">
<svg version="1.1" id="圖層_1" xmlns="http://www.w3.org/2000/svg" xmlns:xlink="http://www.w3.org/1999/xlink" x="0px" y="0px"
	 viewBox="0 0 211.8 684.3" enable-background="new 0 0 211.8 684.3" xml:space="preserve">
<path d="M163.4,68.2c-0.8,0-1.7-0.1-2.5-0.4L94.5,48.4c-4.8-1.4-7.1-5.3-5.7-10.1c1.4-4.8,6-6.3,10.8-4.9l66.3,19.5
	c4.8,1.4,6.4,5.9,4.7,10.7C169.2,67.5,166.2,68,163.4,68.2z"/>
<path d="M154.2,147.8h-48.1c-5,0-9-4-9-9c0-5,4-9,9-9h48.1c5,0,9,4,9,9C163.3,143.7,159.2,147.8,154.2,147.8z"/>
<path d="M37.6,634.6c-2.9,0-5.7-1.4-7.5-3.9c-2.8-4.1-1.7-9.7,2.4-12.5l116.7-79.5c4.1-2.8,9.7-1.7,12.5,2.4
	c2.8,4.1,1.7,9.7-2.4,12.5L42.6,633.1C41.1,634.1,39.3,634.6,37.6,634.6z"/>
</svg>
