<?xml version="1.0" encoding="utf-8"?>
<!-- Generator: Adobe Illustrator 18.0.0, SVG Export Plug-In . SVG Version: 6.00 Build 0)  -->
<!DOCTYPE svg PUBLIC "-//W3C//DTD SVG 1.1//EN" "http://www.w3.org/Graphics/SVG/1.1/DTD/svg11.dtd">
<svg version="1.1" id="圖層_1" xmlns="http://www.w3.org/2000/svg" xmlns:xlink="http://www.w3.org/1999/xlink" x="0px" y="0px"
	 viewBox="0 0 129.9 164.3" enable-background="new 0 0 129.9 164.3" xml:space="preserve">
<g>
	<path fill="#191919" d="M29.9,71.6h-5.6V70h13v1.6h-5.6v19h-1.8V71.6z"/>
	<path fill="#191919" d="M46.1,90.9c-4.8,0-7.7-2.9-7.7-10.5c0-7.6,3-10.7,8-10.7c4.8,0,7.7,2.9,7.7,10.5
		C54.1,87.8,51.1,90.9,46.1,90.9z M46.3,89.2c3.7,0,6-2.1,6-8.8c0-6.8-2.4-9-6.1-9c-3.6,0-6,2.1-6,8.8C40.2,87,42.6,89.2,46.3,89.2z
		"/>
	<path fill="#191919" d="M29.9,97.1h-5.6v-1.6h13v1.6h-5.6v19h-1.8V97.1z"/>
	<path fill="#191919" d="M46.1,116.3c-4.8,0-7.7-2.9-7.7-10.5c0-7.6,3-10.7,8-10.7c4.8,0,7.7,2.9,7.7,10.5
		C54.1,113.3,51.1,116.3,46.1,116.3z M46.3,114.7c3.7,0,6-2.1,6-8.8c0-6.8-2.4-9-6.1-9c-3.6,0-6,2.1-6,8.8
		C40.2,112.4,42.6,114.7,46.3,114.7z"/>
	<path fill="#191919" d="M71.1,101.3c0,4.2-2.5,6.4-6.9,6.4h-3.5v8.4h-1.8V95.4h5.6C68.6,95.4,71.1,97.2,71.1,101.3z M60.7,97.1v9
		h3.6c3.5,0,5-1.6,5-4.6c0-3.2-1.8-4.4-5.2-4.4H60.7z"/>
</g>
<g>
	
		<image overflow="visible" opacity="0.22" width="376" height="376" xlink:href="D8FD30291309AFD6.png"  transform="matrix(0.24 0 0 0.24 25.1747 14.11)">
	</image>
	<g>
		<circle fill="#191919" cx="63.2" cy="52.1" r="30"/>
	</g>
</g>
<g>
	
		<image overflow="visible" opacity="0.22" width="249" height="249" xlink:href="D8FD30291309AFD2.png"  transform="matrix(0.24 0 0 0.24 40.3478 63.2004)">
	</image>
	<g>
		<circle fill="#191919" cx="63.2" cy="86" r="14.8"/>
	</g>
</g>
<g>
	
		<image overflow="visible" opacity="0.22" width="181" height="181" xlink:href="D8FD30291309AFD1.png"  transform="matrix(0.24 0 0 0.24 48.4958 107.7523)">
	</image>
	<g>
		<circle fill="#191919" cx="63.2" cy="122.4" r="6.7"/>
	</g>
</g>
<g>
	
		<image overflow="visible" opacity="0.22" width="149" height="149" xlink:href="D8FD30291309AFDD.png"  transform="matrix(0.24 0 0 0.24 52.4175 135.6011)">
	</image>
	<g>
		<circle fill="#191919" cx="63.2" cy="146.4" r="2.8"/>
	</g>
</g>
<polyline fill="none" stroke="#FFFFFF" stroke-linecap="round" stroke-linejoin="round" stroke-miterlimit="10" points="57.1,58.4 
	63.2,47.9 69.2,58.4 "/>
</svg>
